<svg xmlns="http://www.w3.org/2000/svg" viewBox="0 0 48 48" shape-rendering="crispEdges">
  <!-- Warrior Class Sprite -->
  <!-- Legs/Boots -->
  <rect x="12" y="36" width="10" height="12" fill="#8B4513"/>
  <rect x="26" y="36" width="10" height="12" fill="#8B4513"/>
  <rect x="10" y="38" width="4" height="8" fill="#654321"/>
  <rect x="34" y="38" width="4" height="8" fill="#654321"/>
  
  <!-- Body armor -->
  <rect x="10" y="22" width="28" height="16" fill="#708090"/>
  <rect x="12" y="24" width="24" height="12" fill="#A9A9A9"/>
  
  <!-- Chest plate -->
  <rect x="16" y="26" width="16" height="8" fill="#C0C0C0"/>
  <rect x="22" y="28" width="4" height="4" fill="#FFD700"/>
  
  <!-- Arms -->
  <rect x="2" y="24" width="8" height="12" fill="#708090"/>
  <rect x="38" y="24" width="8" height="12" fill="#708090"/>
  
  <!-- Hands -->
  <rect x="0" y="34" width="6" height="6" fill="#F4A460"/>
  <rect x="42" y="34" width="6" height="6" fill="#F4A460"/>
  
  <!-- Sword in right hand -->
  <rect x="44" y="12" width="4" height="24" fill="#C0C0C0"/>
  <rect x="42" y="16" width="8" height="4" fill="#FFD700"/>
  <rect x="45" y="8" width="2" height="4" fill="#E0E0E0"/>
  
  <!-- Head -->
  <rect x="16" y="10" width="16" height="14" fill="#F4A460"/>
  <rect x="18" y="12" width="12" height="10" fill="#FFDEAD"/>
  
  <!-- Helmet -->
  <rect x="14" y="8" width="20" height="8" fill="#708090"/>
  <rect x="16" y="6" width="16" height="4" fill="#A9A9A9"/>
  <rect x="22" y="4" width="4" height="4" fill="#FFD700"/>
  
  <!-- Eyes -->
  <rect x="19" y="16" width="3" height="3" fill="#000"/>
  <rect x="26" y="16" width="3" height="3" fill="#000"/>
  
  <!-- Mouth -->
  <rect x="21" y="21" width="6" height="2" fill="#8B4513"/>
</svg>